<svg width="492" height="477" viewBox="0 0 492 477" fill="none" xmlns="http://www.w3.org/2000/svg">
<rect width="492" height="477" rx="20" fill="#F2F2F2"/>
<mask id="mask0_1_5" style="mask-type:alpha" maskUnits="userSpaceOnUse" x="0" y="0" width="492" height="477">
<rect width="492" height="477" rx="20" fill="#09BC4D" fill-opacity="0.2"/>
</mask>
<g mask="url(#mask0_1_5)">
<path d="M502 491.5H434.5C459 491.5 387.5 184.5 314.5 158.5C256.1 137.7 182.833 36.8333 153.5 -11H34C67 39.5 216 202 259.5 230C294.3 252.4 350 413.667 373.5 491.5H301C280.667 423.333 228.2 280.4 181 254C133.8 227.6 31 96.3333 -14.5 34C-14.5 56.5 -14.5 104.3 -14.5 115.5C-14.5 129.5 94.5 280 134.5 314.5C166.5 342.1 211.5 444 230 491.5H153.5C159.1 466.7 29.8333 259.167 -35.5 158.5L-41 318M502 491.5C503.5 407.667 488.9 223.7 418.5 158.5C330.5 77 259.5 36 259.5 -11H373.5C388.667 16.6667 427.3 74.1 460.5 82.5C493.7 90.9 514.667 136.667 521 158.5L502 491.5ZM-41 318C0.666668 358.667 85.2 450.3 90 491.5H4.5L-41 318Z" stroke="#95CDDC" stroke-width="3"/>
</g>
</svg>
